<svg xmlns="http://www.w3.org/2000/svg" viewBox="0 0 280 70" fill="none">
  <!-- Garuda Emblem -->
  <g transform="translate(10, 5)">
    <!-- Golden Eagle Wings -->
    <path d="M 28 6 L 33 16 L 46 8 L 40 22 L 54 18 L 44 32 L 52 38 L 38 42 L 42 54 L 28 46 L 14 54 L 18 42 L 4 38 L 12 32 L 2 18 L 16 22 L 10 8 L 23 16 Z" fill="#eab308" stroke="#ca8a04" stroke-width="1"/>
    <!-- Head -->
    <circle cx="28" cy="10" r="5" fill="#eab308"/>
    <!-- Shield -->
    <path d="M 21 24 L 35 24 L 35 36 C 35 41 28 45 28 45 C 28 45 21 41 21 36 Z" fill="#dc2626" stroke="#18181b" stroke-width="1"/>
    <path d="M 28 24 L 35 24 L 35 36 C 35 41 28 45 28 45 Z" fill="#ffffff"/>
    <circle cx="28" cy="33" r="3" fill="#facc15"/>
    <!-- Ribbon -->
    <path d="M 12 50 L 44 50 L 40 54 L 16 54 Z" fill="#ffffff" stroke="#71717a" stroke-width="0.8"/>
  </g>
  <!-- Text Block -->
  <g transform="translate(70, 10)">
    <text x="0" y="24" font-family="'Arial Black', sans-serif" font-weight="900" font-size="26" fill="#065f46" letter-spacing="1">BAZNAS</text>
    <text x="0" y="38" font-family="'Arial', sans-serif" font-weight="bold" font-size="9" fill="#18181b" letter-spacing="0.5">Badan Amil Zakat Nasional</text>
    <text x="0" y="52" font-family="'Arial Black', sans-serif" font-weight="900" font-size="11" fill="#065f46" letter-spacing="1.5">KOTA MOJOKERTO</text>
  </g>
</svg>
